<?xml version="1.0" encoding="UTF-8"?>
<svg version="1.1" xmlns="http://www.w3.org/2000/svg" width="206" height="245" viewBox="0 0 206 245">
  <path d="M0 0 C67.98 0 135.96 0 206 0 C206 80.85 206 161.7 206 245 C138.02 245 70.04 245 0 245 C0 164.15 0 83.3 0 0 Z" fill="#FAFBFB"/>
  <path d="M0 0 C67.98 0 135.96 0 206 0 C206 0.33 206 0.66 206 1 C201.05 1.33 196.1 1.66 191 2 C191 3.98 191 5.96 191 8 C191.99 8.66 192.98 9.32 194 10 C193.67 10.99 193.34 11.98 193 13 C195.97 13 198.94 13 202 13 C201.67 13.99 201.34 14.98 201 16 C200.67 15.67 200.34 15.34 200 15 C199.67 15.66 199.34 16.32 199 17 C198.01 17.33 197.02 17.66 196 18 C196.33 18.99 196.66 19.98 197 21 C196.37955811 20.99476318 195.75911621 20.98952637 195.11987305 20.98413086 C192.30909233 20.96334534 189.49832779 20.95033483 186.6875 20.9375 C185.71103516 20.92912109 184.73457031 20.92074219 183.72851562 20.91210938 C182.79072266 20.90888672 181.85292969 20.90566406 180.88671875 20.90234375 C180.02264404 20.89710693 179.15856934 20.89187012 178.26831055 20.88647461 C175.83271286 20.90664477 175.83271286 20.90664477 173 22 C173 21.01 173 20.02 173 19 C171.68 19 170.36 19 169 19 C168.67 19.66 168.34 20.32 168 21 C163.71 21 159.42 21 155 21 C154.67 19.68 154.34 18.36 154 17 C153.67 18.32 153.34 19.64 153 21 C151.125 20.75 151.125 20.75 149 20 C147.75 17.9375 147.75 17.9375 147 16 C146.34 16 145.68 16 145 16 C145 15.01 145 14.02 145 13 C145.928125 12.8453125 145.928125 12.8453125 146.875 12.6875 C149.36526484 12.12474627 149.36526484 12.12474627 151 9 C151.66 6.69 152.32 4.38 153 2 C120.66 1.67 88.32 1.34 55 1 C54.67 1.66 54.34 2.32 54 3 C53.2575 2.79375 52.515 2.5875 51.75 2.375 C48.56639815 1.94087248 47.75201184 2.53799371 45 4 C44.13375 3.979375 43.2675 3.95875 42.375 3.9375 C41.59125 3.958125 40.8075 3.97875 40 4 C39.34 4.99 38.68 5.98 38 7 C37.34 7 36.68 7 36 7 C36 7.66 36 8.32 36 9 C36.99 9 37.98 9 39 9 C39.495 10.485 39.495 10.485 40 12 C39.34 12 38.68 12 38 12 C38 11.34 38 10.68 38 10 C36.68 10 35.36 10 34 10 C32.25 7.5 32.25 7.5 31 5 C29.35 5.66 27.7 6.32 26 7 C26.66 5.68 27.32 4.36 28 3 C26.22509454 1.22509454 23.62215098 1.76500027 21.21484375 1.68359375 C20.16159912 1.64548584 19.10835449 1.60737793 18.02319336 1.56811523 C16.67491455 1.52501221 15.32663574 1.48190918 13.9375 1.4375 C7.5334375 1.2209375 7.5334375 1.2209375 1 1 C1.33 14.2 1.66 27.4 2 41 C3.65 41 5.3 41 7 41 C3.25 43 3.25 43 1 43 C1 62.47 1 81.94 1 102 C2.32 102 3.64 102 5 102 C5 104.31 5 106.62 5 109 C8.63423209 111.32590854 11.77088331 111.16265833 16 111 C15.67 111.99 15.34 112.98 15 114 C10.545 114.495 10.545 114.495 6 115 C7.72280922 116.99381292 9.45334778 118.9789696 11.203125 120.94921875 C12.51561962 122.44717456 13.77461989 123.99248174 15 125.5625 C17.06444137 127.3629022 17.06444137 127.3629022 20.5 126.8125 C23.00534644 126.23090172 25.50482492 125.62379377 28 125 C28.66 122.03 29.32 119.06 30 116 C30.66 116 31.32 116 32 116 C32.06058594 116.66386719 32.12117188 117.32773438 32.18359375 118.01171875 C32.79863507 124.54908081 32.79863507 124.54908081 34 131 C34.66 131 35.32 131 36 131 C36.66 130.01 37.32 129.02 38 128 C38 129.65 38 131.3 38 133 C36.68 133 35.36 133 34 133 C33.09093493 148.28576082 36.18967189 161.49114194 43.078125 175.015625 C44.88021381 178.6025081 46.09925959 182.19121853 47.1875 186.0625 C48.48118836 190.65594855 50.0881685 194.12405397 52.76953125 198.04296875 C55.89225233 203.00958228 57.77106971 208.68000411 59.0625 214.375 C60.11785713 218.77314331 60.11785713 218.77314331 63 222 C66.62563814 222.33380814 66.62563814 222.33380814 70 222 C70.0928125 220.824375 70.0928125 220.824375 70.1875 219.625 C70.455625 218.75875 70.72375 217.8925 71 217 C72.65204456 216.29788106 74.31923769 215.63028587 76 215 C76.36548445 213.67511887 76.6937566 212.33981486 77 211 C77.825 210.29875 78.65 209.5975 79.5 208.875 C82.99778718 204.85254474 82.88931692 201.18198057 83 196 C82.34 196 81.68 196 81 196 C81 195.34 81 194.68 81 194 C81.99 194 82.98 194 84 194 C84 193.34 84 192.68 84 192 C84.66 192 85.32 192 86 192 C86.020625 190.741875 86.04125 189.48375 86.0625 188.1875 C86.07410156 187.47980469 86.08570312 186.77210938 86.09765625 186.04296875 C86.08263217 183.79694539 86.08263217 183.79694539 85 181 C84.59987916 176.02926803 84.4151936 171.49125632 86.25 166.8125 C86.8275 166.214375 87.405 165.61625 88 165 C89.32 165 90.64 165 92 165 C92.33 164.01 92.66 163.02 93 162 C95.64 161.67 98.28 161.34 101 161 C100.91492188 160.2471875 100.82984375 159.494375 100.7421875 158.71875 C101 156 101 156 102.7578125 154.15625 C103.92957031 153.33640625 103.92957031 153.33640625 105.125 152.5 C105.94355469 151.91089844 106.76210937 151.32179687 107.60546875 150.71484375 C108.39566406 150.14894531 109.18585938 149.58304688 110 149 C111.15608581 148.03295967 112.30372702 147.05560635 113.4375 146.0625 C116 144 116 144 118 144 C118 143.01 118 142.02 118 141 C118.66 141 119.32 141 120 141 C120.2475 140.38125 120.495 139.7625 120.75 139.125 C122.23250486 136.60474173 123.28387064 135.98768341 126 135 C126.99 135 127.98 135 129 135 C129 134.34 129 133.68 129 133 C130.32 132.67 131.64 132.34 133 132 C132.9175 130.741875 132.835 129.48375 132.75 128.1875 C132.76381713 124.26343474 132.76381713 124.26343474 134.625 122.1875 C135.40875 121.795625 136.1925 121.40375 137 121 C138.03125 120.443125 139.0625 119.88625 140.125 119.3125 C143 118 143 118 145 118 C146.43433481 116.79338423 146.43433481 116.79338423 146.125 113.25 C146.09051205 110.05411684 145.77827069 107.11308275 145 104 C148.33773709 107.64116773 148.97864902 111.28607242 150 116 C150.99 114.515 150.99 114.515 152 113 C152 113.99 152 114.98 152 116 C152.99 116 153.98 116 155 116 C155 116.66 155 117.32 155 118 C155.99 118 156.98 118 158 118 C158 117.34 158 116.68 158 116 C158.66 116 159.32 116 160 116 C159.34 114.02 158.68 112.04 158 110 C158.99 110 159.98 110 161 110 C161.33 110.66 161.66 111.32 162 112 C163.32 111.67 164.64 111.34 166 111 C167.72225995 113.66167446 168.98313955 115.94219274 169.875 119 C171.62678497 123.67142659 174.5936009 126.15616054 178.8125 128.6875 C179.534375 129.120625 180.25625 129.55375 181 130 C181 130.66 181 131.32 181 132 C181.99 132 182.98 132 184 132 C184 133.32 184 134.64 184 136 C184.66 136 185.32 136 186 136 C189.55292152 144.87467951 191.0671067 151.79867989 188 161 C188.66 161 189.32 161 190 161 C190.33 159.35 190.66 157.7 191 156 C191.433125 156.598125 191.86625 157.19625 192.3125 157.8125 C193.77461239 159.70783087 195.27050227 161.3528593 197 163 C197.556875 161.824375 197.556875 161.824375 198.125 160.625 C200 158 200 158 206 156 C206 185.37 206 214.74 206 245 C138.02 245 70.04 245 0 245 C0 164.15 0 83.3 0 0 Z" fill="#96D5FD"/>
  <path d="M0 0 C32.01 0 64.02 0 97 0 C96.34 0.33 95.68 0.66 95 1 C94.855625 2.093125 94.71125 3.18625 94.5625 4.3125 C94.00897733 7.94114861 93.66217346 9.53502458 91 12 C89.68 12 88.36 12 87 12 C87.99 12.495 87.99 12.495 89 13 C89 13.66 89 14.32 89 15 C89.99 15.495 89.99 15.495 91 16 C91.495 17.485 91.495 17.485 92 19 C92.99 18.67 93.98 18.34 95 18 C95 16.35 95 14.7 95 13 C95.495 14.485 95.495 14.485 96 16 C96.66 16.33 97.32 16.66 98 17 C97.505 18.485 97.505 18.485 97 20 C99.06277107 19.85805236 101.12521031 19.71127784 103.1875 19.5625 C104.33605469 19.48128906 105.48460937 19.40007813 106.66796875 19.31640625 C109.51598171 19.04596188 112.21210482 18.62478253 115 18 C115 18.99 115 19.98 115 21 C115.5662207 20.67402832 116.13244141 20.34805664 116.71582031 20.01220703 C119.21950977 18.90272686 120.82657918 18.76792675 123.546875 18.8046875 C124.39121094 18.81113281 125.23554688 18.81757813 126.10546875 18.82421875 C126.97816406 18.84097656 127.85085937 18.85773437 128.75 18.875 C130.08224609 18.88853516 130.08224609 18.88853516 131.44140625 18.90234375 C133.62788058 18.92585423 135.81380094 18.95871501 138 19 C137.67 18.01 137.34 17.02 137 16 C138.32 16 139.64 16 141 16 C141.33 15.01 141.66 14.02 142 13 C142.33 13.33 142.66 13.66 143 14 C143.33 13.34 143.66 12.68 144 12 C141.03 12 138.06 12 135 12 C134.67 12.66 134.34 13.32 134 14 C132.27422527 8.7148149 132 5.96472769 132 0 C137.28 0 142.56 0 148 0 C148 21.45 148 42.9 148 65 C145.3333581 66.33332095 143.83319697 65.67102033 141 65 C140.896875 64.21625 140.79375 63.4325 140.6875 62.625 C140.22404978 59.66954819 140.22404978 59.66954819 137 58 C136.67 58.515625 136.34 59.03125 136 59.5625 C133.53770416 61.33227513 132.74507002 61.07158882 129.8125 60.6875 C128.554375 60.460625 127.29625 60.23375 126 60 C125.649375 60.598125 125.29875 61.19625 124.9375 61.8125 C123 64 123 64 119.4375 65.5 C115.65435752 67.15082581 115.60879337 67.55258564 114 71 C110.05013876 72.26089045 107.45695202 71.80541022 103.5625 70.5625 C99.56776141 69.37487501 96.20654032 68.65892916 92 69 C91.34 70.65 90.68 72.3 90 74 C89.34 73.01 88.68 72.02 88 71 C87.319375 71.165 86.63875 71.33 85.9375 71.5 C81.13849062 72.31685266 76.68516959 72.33861988 72 71 C71.01 71 70.02 71 69 71 C65.375 70.125 65.375 70.125 62 69 C61.67 68.34 61.34 67.68 61 67 C59.35636866 66.27840576 57.68949614 65.60648579 56 65 C56 64.01 56 63.02 56 62 C54.91138672 62.08701172 54.91138672 62.08701172 53.80078125 62.17578125 C50.46758937 61.96658511 48.92773638 61.0552233 46.1875 59.1875 C45.39730469 58.66542969 44.60710937 58.14335938 43.79296875 57.60546875 C43.20128906 57.07566406 42.60960937 56.54585937 42 56 C42 55.01 42 54.02 42 53 C37.52116304 53.44703986 37.52116304 53.44703986 34 56 C33.54625 55.525625 33.0925 55.05125 32.625 54.5625 C31.06741796 52.90972192 31.06741796 52.90972192 29 52 C29 51.34 29 50.68 29 50 C28.113125 49.773125 27.22625 49.54625 26.3125 49.3125 C22.42216646 47.77104709 20.60918121 46.26147651 18 43 C17.06286631 40.65959359 16.53494882 38.48021723 16 36 C17.175625 36.2784375 17.175625 36.2784375 18.375 36.5625 C20.97089775 37.25962266 20.97089775 37.25962266 23 36 C23 34.02 23 32.04 23 30 C22.01 30 21.02 30 20 30 C20 28.35 20 26.7 20 25 C20.99 25 21.98 25 23 25 C23.28875 24.4225 23.5775 23.845 23.875 23.25 C24.56281558 21.87436883 25.28470219 20.51433155 26.0625 19.1875 C27.3467688 16.19087279 27.62818874 13.22236424 28 10 C21.20292787 8.61541123 16.47913427 9.64998614 10 12 C10 11.34 10 10.68 10 10 C9.2575 9.9175 8.515 9.835 7.75 9.75 C4.44976235 8.84993519 3.23029279 7.53791938 1 5 C0.34 4.34 -0.32 3.68 -1 3 C-0.67 2.01 -0.34 1.02 0 0 Z" fill="#FEFEFE" transform="translate(58,1)"/>
</svg>
